<svg width="10" height="7" viewBox="0 0 10 7" fill="none" xmlns="http://www.w3.org/2000/svg">
<path fill-rule="evenodd" clip-rule="evenodd" d="M9.70716 0.585877C9.89464 0.773405 9.99995 1.02771 9.99995 1.29288C9.99995 1.55804 9.89464 1.81235 9.70716 1.99988L5.00016 6.70688L0.293163 1.99988C0.111005 1.81127 0.0102106 1.55867 0.012489 1.29648C0.0147674 1.03428 0.119937 0.783467 0.305345 0.598059C0.490753 0.412651 0.741566 0.307482 1.00376 0.305203C1.26596 0.302925 1.51856 0.403719 1.70716 0.585877L5.00016 3.87888L8.29316 0.585877C8.48069 0.398406 8.735 0.293091 9.00016 0.293091C9.26533 0.293091 9.51964 0.398406 9.70716 0.585877Z" fill="#F56600"/>
</svg>
